# xmcd
#
# Track frame offsets:
#	150
#	16430
#	31407
#	48138
#	69924
#	88489
#	100992
#	112065
#	125599
#	141256
#	155789
#
# Disc length: 2294 seconds
#
# Revision: 0
# Processed by: cddbd v1.5.1PL0 Copyright (c) Steve Scherf et al.
# Submitted via: audiograbber 1.83.01
#
DISCID=9c08f40b
DTITLE=John Caugar Mellencamp - Big Daddy
DYEAR=1900
DGENRE=Blues
TTITLE0=Big Daddy Of Them All
TTITLE1=To Live
TTITLE2=Martha Say
TTITLE3=Theo And Weird Henry
TTITLE4=Jackie Brown
TTITLE5=Pop Singer
TTITLE6=Void In My Heart
TTITLE7=Mansions In Heaven
TTITLE8=Sometimes A Great Notion
TTITLE9=Country Gentleman
TTITLE10=J.M'S Question
EXTD=
EXTT0=
EXTT1=
EXTT2=
EXTT3=
EXTT4=
EXTT5=
EXTT6=
EXTT7=
EXTT8=
EXTT9=
EXTT10=
PLAYORDER=
